<svg id="Layer_1" data-name="Layer 1" xmlns="http://www.w3.org/2000/svg" viewBox="0 0 98 20.85"><defs><style>.cls-1{fill:#fff;}.cls-2{fill:#04d9ff;}</style></defs><title>portfolio-logo</title><path class="cls-1" d="M15.69,35.1h-4.2L4.74,26.22a4.11,4.11,0,0,1-.46-.68H4.22V35.1H1V15.68H4.22v9.13h.06a4.22,4.22,0,0,1,.46-.66l6.51-8.47h3.86L7.49,25Z" transform="translate(-1 -14.57)"/><path class="cls-1" d="M29,29H19.55a4,4,0,0,0,1.19,3,4.42,4.42,0,0,0,3.1,1,6.82,6.82,0,0,0,4.08-1.33v2.54a9.33,9.33,0,0,1-5,1.19,6.2,6.2,0,0,1-4.8-1.89,7.56,7.56,0,0,1-1.74-5.32A7.38,7.38,0,0,1,18.29,23a6.25,6.25,0,0,1,4.76-2,5.47,5.47,0,0,1,4.4,1.83A7.63,7.63,0,0,1,29,27.82ZM26,26.8a4,4,0,0,0-.8-2.63A2.65,2.65,0,0,0,23,23.23a3.07,3.07,0,0,0-2.29,1,4.57,4.57,0,0,0-1.16,2.59Z" transform="translate(-1 -14.57)"/><path class="cls-1" d="M43.94,21.24,38.58,35.1h-3.4L30.07,21.24h3.42l3.07,9.69A9,9,0,0,1,37,32.8h0A10.86,10.86,0,0,1,37.41,31l3.23-9.75Z" transform="translate(-1 -14.57)"/><path class="cls-1" d="M47.65,18.32a1.88,1.88,0,0,1-1.32-.5,1.63,1.63,0,0,1-.55-1.27,1.7,1.7,0,0,1,.55-1.29,1.88,1.88,0,0,1,1.32-.51,1.92,1.92,0,0,1,1.35.51,1.71,1.71,0,0,1,.56,1.29A1.64,1.64,0,0,1,49,17.8,1.89,1.89,0,0,1,47.65,18.32ZM49.21,35.1H46.07V21.24h3.14Z" transform="translate(-1 -14.57)"/><path class="cls-1" d="M65.66,35.1H62.52V27.29q0-3.88-2.75-3.89a3,3,0,0,0-2.37,1.08,4,4,0,0,0-.93,2.71V35.1H53.31V21.24h3.16v2.3h.05A5,5,0,0,1,61,20.91a4.2,4.2,0,0,1,3.45,1.47,6.61,6.61,0,0,1,1.19,4.24Z" transform="translate(-1 -14.57)"/><path class="cls-2" d="M81.82,35.1H78.67V27.52q0-4.12-2.74-4.12a2.87,2.87,0,0,0-2.33,1.19,4.71,4.71,0,0,0-.95,3.05V35.1H69.49V14.57h3.16v9h0a5,5,0,0,1,4.5-2.63q4.62,0,4.62,5.65Z" transform="translate(-1 -14.57)"/><path class="cls-2" d="M91.78,35.43a6.84,6.84,0,0,1-5.12-2,7,7,0,0,1-1.92-5.15,7.32,7.32,0,0,1,2-5.46,7.32,7.32,0,0,1,5.38-2,6.67,6.67,0,0,1,5.07,1.91A7.37,7.37,0,0,1,99,28.11a7.24,7.24,0,0,1-2,5.32A7,7,0,0,1,91.78,35.43Zm.15-12A3.56,3.56,0,0,0,89,24.7,5.41,5.41,0,0,0,88,28.25,5.07,5.07,0,0,0,89,31.68a3.64,3.64,0,0,0,2.9,1.26,3.45,3.45,0,0,0,2.85-1.24,5.4,5.4,0,0,0,1-3.5,5.51,5.51,0,0,0-1-3.54A3.42,3.42,0,0,0,91.93,23.42Z" transform="translate(-1 -14.57)"/></svg>